<svg xmlns="http://www.w3.org/2000/svg" width="649" height="623" viewBox="0 0 649 623" fill="none"><g opacity="0.4"><path d="M238.367 228.974C269.279 239.799 321.185 162.724 299.76 144.528C286.587 133.339 254.698 134.737 228.692 138.415C204.279 141.866 169.396 155.979 160.79 179.418C156.233 191.861 158.968 209.589 168.62 215.797C176.089 220.601 186.173 218.44 188.397 219.239C199.002 214.841 200.558 213.132 209.007 212.1C220.05 210.751 229.865 225.997 238.367 228.974Z" stroke="#D9DBE3" stroke-width="2" stroke-miterlimit="10"></path><path d="M269.731 266.883C305.634 261.152 344.648 148.575 305.702 122.668C280.899 106.168 237.659 113.453 207.519 122.177C179.833 130.189 133.733 156.929 124.406 195.25C118.984 217.516 125.572 248.84 144.449 257.901C159.496 265.121 178.883 258.912 182.297 258.434C202.474 247.583 204.106 242.062 219.13 238.345C239.022 233.43 254.727 269.289 269.731 266.883Z" stroke="#D9DBE3" stroke-width="2" stroke-miterlimit="10"></path><path d="M298.823 304.539C338.463 293.976 365.837 134.266 309.372 100.558C272.929 78.806 218.324 91.8548 184.073 105.689C153.088 118.201 95.9634 157.574 85.7487 210.833C79.5865 242.953 89.87 287.803 118.001 299.755C140.606 309.362 169.475 299.503 173.917 297.381C204.974 282.538 205.367 270.743 226.989 264.342C255.71 255.815 278.062 310.06 298.823 304.539Z" stroke="#D9DBE3" stroke-width="2" stroke-miterlimit="10"></path><path d="M326.165 340.483C370.064 325.244 385.205 118.404 311.291 76.7332C263.16 49.8399 197.213 68.5077 158.88 87.4833C124.56 104.468 56.4838 156.47 45.3289 224.704C38.4721 266.647 52.4051 325.041 89.7946 339.904C119.97 351.888 158.09 337.831 163.781 334.625C203.814 312.07 204.849 297.663 233.063 288.622C270.619 276.483 299.887 349.603 326.165 340.483Z" stroke="#D9DBE3" stroke-width="2" stroke-miterlimit="10"></path><path d="M468.673 405.77C453.809 405.894 435.984 431.661 449.314 435.964C457.013 438.452 477.397 434.516 485.403 427.512C496.679 417.656 478.9 405.681 468.673 405.77Z" stroke="#D9DBE3" stroke-width="2" stroke-miterlimit="10"></path><path d="M428.279 432.355C429.733 435.813 436.544 437.349 442.759 441.56C455.365 450.106 457.174 454.167 466.127 459.321C469.619 461.335 474.317 463.98 478.904 462.769C485.927 460.912 487.68 452.877 496.594 438.724C508.152 420.335 512.529 415.58 509.227 405.835C508.457 403.569 507.461 396.231 501.895 391.755C494.186 385.566 485.151 390.347 473.855 386.251C460.289 381.339 453.563 372.596 447.676 376.46C443.529 379.181 443.375 386.634 440.269 399.611C437.904 409.496 436.417 415.983 433.54 421.275C430.091 427.575 426.661 428.511 428.279 432.355Z" stroke="#D9DBE3" stroke-width="2" stroke-miterlimit="10"></path><path d="M405.56 425.148C405.812 431.278 415.443 434.245 423.381 443.102C439.66 461.272 432.118 474.256 445.167 487.53C450.703 493.166 459.392 498.624 468.099 497.567C480.456 496.064 484.607 483.303 503.631 457.431C528.503 423.606 539.098 416.982 536.775 398.956C536.3 395.282 535.838 381.175 526.118 372.684C513.155 361.361 497.616 371.663 477.321 363.152C454.645 353.656 446.169 333.355 438.523 337.556C433.213 340.473 435.247 352.222 431.165 375.137C428.276 391.424 426.49 400.943 420.715 408.74C413.425 418.573 405.288 418.491 405.56 425.148Z" stroke="#D9DBE3" stroke-width="2" stroke-miterlimit="10"></path><path d="M382.817 418.02C381.834 426.805 394.306 431.222 403.98 444.726C423.899 472.527 406.726 494.256 424.184 515.822C431.656 525.049 444.472 533.304 457.272 532.443C475.012 531.251 481.567 513.864 510.671 476.217C548.936 427.028 565.414 418.367 564.333 392.155C564.12 387.043 564.218 366.204 550.351 353.683C532.129 337.235 510.056 353.077 480.8 340.126C448.99 326.046 438.795 294.195 429.367 298.72C422.896 301.851 427.041 317.883 422.058 350.736C418.618 373.425 416.544 385.93 407.882 396.277C396.717 409.611 383.869 408.556 382.817 418.02Z" stroke="#D9DBE3" stroke-width="2" stroke-miterlimit="10"></path><path d="M360.022 410.911C357.818 422.342 373.094 428.226 384.527 446.367C408.043 483.814 381.202 514.204 403.152 544.13C412.534 556.933 429.511 567.988 446.395 567.339C469.531 566.449 478.386 544.375 517.646 495.019C569.182 430.381 591.609 419.706 591.809 385.37C591.849 378.821 592.497 351.269 574.499 334.7C550.996 313.148 522.429 334.52 484.194 317.116C443.244 298.471 431.329 255.042 420.158 259.901C412.524 263.235 418.782 283.563 412.898 326.35C408.898 355.444 406.549 370.919 395.001 383.831C379.951 400.649 362.394 398.618 360.022 410.911Z" stroke="#D9DBE3" stroke-width="2" stroke-miterlimit="10"></path><path d="M337.185 403.805C340.877 388.677 363.135 391.69 382.067 371.388C396.505 355.909 399.129 337.471 403.689 301.969C410.46 249.249 402.1 224.622 410.896 221.089C423.827 215.892 437.458 270.904 487.556 294.11C534.75 315.97 569.87 289.021 598.614 315.721C620.773 336.308 619.541 370.572 619.253 378.592C617.726 421.042 589.385 433.74 524.575 513.828C475.156 574.894 464.011 601.646 435.467 602.239C414.5 602.674 393.353 588.814 382.067 572.441C355.639 534.13 392.2 495.062 365.032 448.011C351.865 425.21 333.749 417.879 337.185 403.805Z" stroke="#D9DBE3" stroke-width="2" stroke-miterlimit="10"></path><path d="M536.994 124.77C543.606 130.949 546.495 142.288 549.801 161.726C553.077 180.999 552.562 194.798 549.683 195.8C548.113 196.34 543.668 192.113 539.854 189.015C532.716 183.233 520.496 183.874 517.364 183.249C505.898 180.957 502.53 176.7 497.738 168.547C495.52 164.781 490.347 156.431 488.07 146.607C484.597 131.731 469.033 127.147 470.93 121.184C472.525 116.207 487.946 114.999 497.944 114.858C512.273 114.655 526.773 115.228 536.994 124.77Z" stroke="#D9DBE3" stroke-width="2" stroke-miterlimit="10"></path><path d="M548.454 108.159C559.321 119.2 563.596 137.73 570.181 172.384C576.87 207.205 576.828 231.089 573.532 231.98C571.059 232.661 563.049 224.052 556.241 217.9C543.409 206.252 520.437 208.168 515.703 207.421C494.114 204.088 488.794 196.101 480.427 181.006C476.941 174.719 467.378 159.394 463.021 141.296C456.315 113.571 424.521 106.312 427.152 96.0331C429.35 87.4736 458.835 86.1605 477.387 86.8645C503.582 87.8829 530.092 89.4939 548.454 108.159Z" stroke="#D9DBE3" stroke-width="2" stroke-miterlimit="10"></path><path d="M559.851 91.6551C574.983 107.556 580.595 133.29 590.496 183.151C600.55 233.529 601.018 267.443 597.316 268.287C593.926 269.073 582.358 256.106 572.576 246.882C554.082 229.341 520.329 232.566 513.99 231.721C482.284 227.49 474.982 215.66 463.064 193.59C458.307 184.785 444.361 162.482 437.917 136.119C427.987 95.5419 379.96 85.6136 383.318 71.016C386.123 58.8742 429.678 57.4039 456.777 59.0117C494.832 61.1565 533.391 63.8482 559.851 91.6551Z" stroke="#D9DBE3" stroke-width="2" stroke-miterlimit="10"></path><path d="M88.2058 437.86C94.1026 415.266 136.429 425.878 186.815 374.99C204.869 356.754 216.974 337.68 240.869 334.714C243.281 334.416 267.219 331.799 284.113 347.157C305.368 366.476 292.395 393.278 317.201 430.656C326.338 444.425 327.858 440.427 334.564 451.285C363.184 497.636 319.534 544.69 344.72 591.761C356.314 613.428 373.549 618.402 371.911 621.231C364.842 633.369 72.2711 498.742 88.2058 437.86Z" stroke="#D9DBE3" stroke-width="2" stroke-miterlimit="10"></path><path d="M247.422 365.602C248.87 365.798 264.654 364.619 275.481 375.478C289.171 389.188 279.412 408.065 295.098 433.551C300.87 442.935 301.673 440.391 305.781 447.814C323.308 479.492 291.851 511.359 307.255 542.368C314.384 556.724 325.637 560.014 323.963 561.416C316.392 567.808 123.279 473.381 138.447 432.293C144.134 416.883 175.181 422.352 210.707 389.162C223.624 377.102 232.371 363.562 247.422 365.602Z" stroke="#D9DBE3" stroke-width="2" stroke-miterlimit="10"></path><path d="M253.974 396.493C254.386 397.531 262.105 397.508 266.848 403.799C273.007 411.959 266.449 422.83 272.994 436.442C275.396 441.439 275.494 440.371 277.001 444.343C283.471 461.426 264.142 478.008 269.794 492.979C272.437 500.026 277.352 501.228 276.041 501.604C266.462 500.245 174.484 447.929 188.672 426.727C194.212 418.442 214.042 418.838 234.583 403.334C242.39 397.44 247.5 393.124 253.974 396.493Z" stroke="#D9DBE3" stroke-width="2" stroke-miterlimit="10"></path><path d="M260.526 427.381C255.441 442.231 235.425 447.28 228.093 441.789C217.282 433.682 226.504 423.125 238.904 421.16C248.172 419.703 266.344 410.387 260.526 427.381Z" stroke="#D9DBE3" stroke-width="2" stroke-miterlimit="10"></path></g><path opacity="0.4" d="M526.066 160.314C522.187 162.279 514.043 158.494 513.322 152.596C512.506 145.907 521.722 140.373 525.771 142.092C530.56 144.129 531.212 157.714 526.066 160.314Z" stroke="#D9DBE3" stroke-width="4" stroke-miterlimit="10"></path><path opacity="0.4" d="M510.488 280.357C458.553 274.463 447.26 254.816 428.259 218.797C420.954 204.949 398.244 168.697 387.636 125.801C371.256 59.5191 290.754 44.2502 295.579 21.0177C299.589 1.69827 371.282 0.0609951 415.483 3.33548C477.243 7.91976 539.936 12.563 582.561 58.6743C606.243 84.2971 614.512 124.436 631.046 204.716C647.83 286.199 649.327 340.142 644.806 340.935C639.564 341.852 620.891 320.306 605.166 304.916C575.275 275.668 520.041 281.441 510.488 280.357Z" stroke="#D9DBE3" stroke-width="4" stroke-miterlimit="10"></path><path opacity="0.4" d="M152.416 371.387C117.332 389.774 98.0928 393.932 60.3593 379.573C13.7051 361.822 -3.85118 289.879 3.68373 238.116C15.8051 154.895 94.784 90.2629 132.432 68.8249C174.824 44.6821 252.241 20.2413 311.96 52.4525C403.482 101.819 400.76 356.053 352.255 375.972C320.677 388.939 264.342 295.893 237.921 312.447C211.5 329 187.5 353.001 152.416 371.387Z" stroke="#D9DBE3" stroke-width="4" stroke-miterlimit="10"></path><path opacity="0.4" d="M204.833 192.69C191.299 187.025 186.159 173.138 195.005 165.21C213.203 148.897 288.123 156.955 291.648 168.013C295.121 178.907 233.072 204.514 204.833 192.69Z" stroke="#D9DBE3" stroke-width="4" stroke-miterlimit="10"></path></svg>